<?xml version="1.0" encoding="utf-8"?>
<!-- Generator: Adobe Illustrator 25.1.0, SVG Export Plug-In . SVG Version: 6.00 Build 0)  -->
<svg version="1.1" id="Layer_1" xmlns="http://www.w3.org/2000/svg" x="0px" y="0px"
     viewBox="0 0 693.9 248" style="enable-background:new 0 0 693.9 248;" xml:space="preserve">
<style type="text/css">
	.st0{fill:#1A2441;}
	.st1{fill:#6CB0E2;}
	.st2{fill:#005C9E;}
</style>
<g id="Logo">
	<g>
		<path class="st0" d="M676.4,125h-28.3v-0.5c0-10.6,6-16.5,14.3-16.5s14,6,14,16.5V125z M694.2,134.3v-7.5
			c0-20-11.2-34.1-31.8-34.1c-20.4,0-32,13.2-32,34.1v9.9c0,26.5,19,33.7,32.3,33.7c12,0,17.2-0.7,25.9-2.3c2.4-0.4,2.8-1.3,2.8-3.5
			v-8.8c0-1.3-1.1-2-2.4-2h-0.4c-5.6,0.5-14.8,1.3-24.6,1.3c-12.8,0-16-9.3-16-17.1v-0.4h43.5C693.4,137.7,694.2,136.4,694.2,134.3"
			/>
		<path class="st0" d="M614.5,107.4c-1.7-4.8-4.2-9-8.8-11.4c-4.7-2.5-10.1-2.9-15.4-3c-6.7-0.2-13.3,0.1-19.9,1
			c-3.3,0.4-12.8,2.4-14.2,2.9c-0.8,0.3-1.7,0.7-2.1,1.5c-0.5,1-0.3,6.2-0.3,7.5v61.2c0,2,1.5,3,2.7,3c3.6,0,8.9,0,12.5,0
			c1.3,0,2.7-1,2.7-3c0-3.5,0-58,0-58c0-0.5-0.1-0.6,0.4-0.7c3.6-0.4,17.8-2.7,22.4,2.5c1.3,1.5,2.4,3.3,3.1,5.2
			c0.8,2.4,1,4.7,1,7.2c0,0-0.1,40.3-0.1,43.8c0,2,1.5,3,2.7,3c3.6,0,8.9,0,12.6,0c1.3,0,2.7-1,2.7-3c0-3.5-0.1-46.8-0.4-51.2
			C615.8,111.9,614.5,107.4,614.5,107.4z"/>
		<path class="st0" d="M522.1,125h-28.3v-0.5c0-10.6,6-16.5,14.3-16.5c8.3,0,14,6,14,16.5V125z M539.8,134.3v-7.5
			c0-20-11.2-34.1-31.8-34.1c-20.4,0-32,13.2-32,34.1v9.9c0,26.5,19,33.7,32.3,33.7c12,0,17.2-0.7,25.9-2.3c2.4-0.4,2.8-1.3,2.8-3.5
			v-8.8c0-1.3-1.1-2-2.4-2h-0.4c-5.6,0.5-14.8,1.3-24.6,1.3c-12.8,0-16-9.3-16-17.1v-0.4h43.5C539,137.7,539.8,136.4,539.8,134.3"/>
		<g>
			<path class="st0" d="M406.3,167.5c3.3,0.8,6.8,1.4,10.3,1.9c6.6,0.9,13.4,1.5,20.1,0.7c5.4-0.6,10.7-2.3,15-5.6
				c4.2-3.1,7.2-7.6,9-12.5c2-5.5,2.4-11.4,2.5-17.2c0-5.5,0.2-10.2-0.6-15.9c-1.4-9.7-6.1-18.7-15.1-23c-9-4.4-19.6-3.7-29.2-2.4
				c0-12,0-21.2,0-22.8v22.8l0,0c0-12.2,0-22.2,0-23.6c0-1.9-1.4-2.3-2.7-2.3c-3.5,0-8.8,0-12.4,0c-1.2,0-2.7,0.9-2.7,3
				c0,0.7,0,92.6,0,92.6C400.3,166.4,403.1,166.7,406.3,167.5z M418.2,155c0-3.2,0-30.3,0-46.5c0.7-0.2,9.6-1.1,13.8-1
				c4.4,0.2,7.5,1.7,9.5,4.1c2.7,3.3,3.7,7.9,3.9,12.2c0.2,4.9,0,10,0,14.9c0,3.8-0.6,7.7-2.5,11.1c-2.1,3.8-5.9,5.9-10.2,6.1
				C427.3,156.1,420.7,155.4,418.2,155z"/>
		</g>
		<g>
			<path class="st0" d="M364.5,167.1c0-4.3,0-67.5,0-71c0-1.9,1.5-3,2.7-3c3.6,0,8.9,0,12.5,0c1.2,0,2.7,0.9,2.7,3
				c0,3.5,0,66.7,0,71v-71c0,4.3,0,67.5,0,71c0,1.9-1.5,3-2.7,3c-3.6,0-8.9,0-12.5,0C366.1,170,364.5,169.1,364.5,167.1
				c0-3.5,0-66.7,0-71"/>
			<circle class="st0" cx="373.5" cy="71.5" r="11.4"/>
		</g>
		<g>
			<path class="st0" d="M346.5,163.3c0,0,0-91.9,0-92.6c0-2-1.5-3-2.7-3c-3.6,0-8.8,0-12.4,0c-1.2,0-2.7,0.3-2.7,2.3
				c0,1.3,0,11.4,0,23.6l0,0V70.8c0,1.6,0,10.9,0,22.8c-9.6-1.3-20.2-2-29.2,2.4c-9.1,4.4-13.8,13.4-15.1,23
				c-0.7,5.2-0.6,10.7-0.6,15.9c0,5.8,0.5,11.7,2.5,17.2c1.8,4.9,4.8,9.4,9,12.5c4.4,3.2,9.7,4.9,15,5.6c6.6,0.8,13.5,0.2,20.1-0.7
				c3.4-0.5,7-1.1,10.3-1.9C343.9,166.7,346.7,166.4,346.5,163.3z M314.2,155.9c-4.3-0.2-8.1-2.3-10.2-6.1
				c-1.8-3.4-2.5-7.3-2.5-11.1c0-4.9-0.2-10,0-14.9c0.2-4.3,1.1-8.9,3.9-12.2c2-2.4,5-3.9,9.5-4.1c4.2-0.2,13.1,0.7,13.8,1
				c0,16.2,0,31.3,0,33l0,0c0,0,0-2.1,0,0c0,0,0,10.3,0,13.5C326.4,155.4,319.8,156.1,314.2,155.9z"/>
		</g>
		<path class="st0" d="M209.2,155.9c1.7,4.8,4.2,9,8.8,11.5c4.7,2.5,10.1,2.9,15.4,3c6.7,0.2,13.3-0.1,19.9-1
			c3.3-0.4,12.8-2.4,14.2-2.9c0.8-0.3,1.7-0.7,2.1-1.6c0.5-1,0.3-6.2,0.3-7.5V95.9c0-2-1.5-3-2.7-3c-3.6,0-8.9,0-12.5,0
			c-1.3,0-2.7,1-2.7,3c0,3.5,0,58.3,0,58.3c0,0.6,0.1,0.6-0.4,0.7c-3.6,0.4-17.8,2.7-22.4-2.5c-1.3-1.5-2.4-3.3-3.1-5.2
			c-0.8-2.4-1-4.7-1-7.2c0,0,0.1-40.4,0.1-43.9c0-2-1.5-3-2.7-3c-3.6,0-8.9,0-12.6,0c-1.3,0-2.7,1-2.7,3c0,3.5,0.1,46.9,0.4,51.4
			C207.9,151.4,209.2,155.9,209.2,155.9z"/>
		<path class="st0" d="M185,100.5c-6.3-6-15.3-7.8-24.3-7.9c-4.5,0-17,1.2-22.9,2.4c-1.6,0.3-2.7,1.2-2.7,2.9c0,0.7,0,3.4,0,5.9
			c0,2,0,3.8,0.3,4.1c0.7,0.9,1.8,1.4,2.8,1.3c3.4-0.4,7.9-0.6,11.4-0.8c6.2-0.3,10.5-0.3,12.8-0.3c2.4,0.1,5.7,0.3,7.9,1.5
			c1.9,1.1,4.4,3.6,4.8,5.8c0.4,2.1,0.4,9.4,0.2,9.6c-0.2,0.1-10.5-0.1-15.3,0.2c-10.4,0.7-23.5,3-27.6,13.1
			c-2,4.8-2.1,10.5-1.2,15.5c1,5.5,4,9.8,9.2,12.8c6.2,3.6,13.8,4,20.9,3.7c18.5-0.7,29.5-3.1,30.9-4c1-0.6,1.2-1.6,1.2-2.6V144
			v-22.4v-3.8C193.2,110,188.2,103.6,185,100.5z M175.3,154.9c-0.1,0.2-8.1,1.1-12.1,1.1c-2.5,0-10.1-0.2-12.4-3.1
			c-1.4-1.8-1.4-5.7-1-8.2c0.3-2.2,1.7-4.1,4-5.3c2.8-1.4,8.8-1.7,12.6-1.7c2.2,0,8.6-0.1,8.9,0
			C175.3,137.7,175.3,154.8,175.3,154.9z"/>
	</g>
	<path class="st1" d="M83.6,209c-6-11.8-10-24.5-12.1-37.5c-1-6.5-1.3-11.9-1-15.2c0.3-3.8,5.2-4.3,6.4-1.5c1.1,2.4,2,6,2.7,8.5
		c6.7,21.6,21.8,40.4,41,52.3c20.6,12.9,45.8,17.9,69.8,14.2c1.6-0.2,4.2-0.6,6-0.8c4.1-0.5,6.1,5.2,1.5,7.1
		c-1.3,0.5-10.1,3.5-13.2,4.4c-12.8,3.7-26.3,5.7-39.7,5.4C119.7,245.2,95.4,232.1,83.6,209"/>
	<g>
		<path class="st1" d="M53.3,161.1c-2.6-69.6,53.9-128.3,126.3-131c11.2-0.4,22.1,0.5,32.5,2.7c4.2,0.9,6.2-5,2.3-6.8
			c-18.7-8.8-39.9-13.4-62.1-12.5C80.2,16.2,23.8,74.7,26.4,144.1c1.3,34.5,16.9,65.2,41.2,87.1c4,3.6,11.1,1.9,6.2-5.4
			C61.2,207.1,54.2,184.8,53.3,161.1z"/>
	</g>
	<path class="st2" d="M26.3,144C24,82.1,68.5,29,129.2,16.2c7.4-1.6,15-2.5,22.9-2.8c0.2,0,0.4,0,0.6,0c3.5,0,4.6-1.9,4.8-3.8
		c0.2-2-1.3-3.9-4.3-4.4c-8.1-1.5-22-3.4-32.8-3C50.3,4.8-2.2,56.3,0.4,125.2c1.7,45.6,29.2,85.5,67.1,105.9
		c-0.9-0.8-1.8-1.6-2.6-2.4C42.1,207,27.6,177.3,26.3,144z"/>
</g>
</svg>
